<?xml version="1.0" encoding="UTF-8"?>
<svg xmlns="http://www.w3.org/2000/svg" xmlns:xlink="http://www.w3.org/1999/xlink" viewBox="0 0 48 48" version="1.1" width="48px" height="48px">
<g id="surface1">
<path style=" fill:#FFFFFF;" d="M 34 29 C 33.398438 23.199219 26.398438 19.199219 18 20.101563 C 13.101563 20.601563 8.601563 22.699219 6.101563 25.699219 C 4.5 27.601563 3.800781 29.800781 4 32 C 4.5 37.300781 10.398438 41 17.800781 41 C 18.5 41 19.199219 41 20 40.898438 C 24.898438 40.398438 29.398438 38.300781 31.898438 35.300781 C 33.5 33.398438 34.199219 31.199219 34 29 Z "/>
<path style=" fill:#D32F2F;" d="M 19.800781 38.898438 C 12.699219 39.601563 6.5 36.398438 6 31.800781 C 5.5 27.199219 11 22.800781 18.101563 22.101563 C 25.300781 21.398438 31.398438 24.601563 31.898438 29.199219 C 32.398438 33.898438 27 38.199219 19.800781 38.898438 M 34.699219 23.898438 C 34.101563 23.699219 33.699219 23.601563 34 22.800781 C 34.699219 21.101563 34.800781 19.601563 34 18.5 C 32.601563 16.5 28.699219 16.601563 24.300781 18.398438 C 24.300781 18.398438 22.898438 19 23.300781 17.898438 C 24 15.699219 23.898438 13.898438 22.800781 12.898438 C 20.398438 10.5 14 13 8.5 18.398438 C 4.398438 22.5 2 26.800781 2 30.5 C 2 37.699219 11.199219 42 20.300781 42 C 32.101563 42 40 35.199219 40 29.800781 C 40 26.5 37.199219 24.699219 34.699219 23.898438 "/>
<path style=" fill:#263238;" d="M 20.898438 30.398438 C 20.601563 30.898438 20 31.199219 19.5 31 C 19 30.800781 18.898438 30.199219 19.101563 29.699219 C 19.398438 29.199219 20 28.898438 20.398438 29.199219 C 21 29.300781 21.101563 29.800781 20.898438 30.398438 M 17.601563 32.800781 C 16.898438 33.800781 15.300781 34.300781 14.101563 33.800781 C 12.898438 33.300781 12.601563 32.101563 13.300781 31.199219 C 14 30.199219 15.5 29.800781 16.699219 30.199219 C 18 30.601563 18.398438 31.800781 17.601563 32.800781 M 20.5 25.199219 C 17 24.300781 13.101563 26 11.601563 29 C 10.101563 32.101563 11.5 35.5 15.101563 36.601563 C 18.699219 37.800781 23 36 24.5 32.699219 C 26 29.5 24.101563 26.101563 20.5 25.199219 "/>
<path style=" fill:#F9A825;" d="M 45.398438 21.5 C 45.398438 22.328125 44.726563 23 43.898438 23 C 43.070313 23 42.398438 22.328125 42.398438 21.5 C 42.398438 20.671875 43.070313 20 43.898438 20 C 44.726563 20 45.398438 20.671875 45.398438 21.5 Z "/>
<path style=" fill:#F9A825;" d="M 45.300781 22 C 45.101563 22.601563 44.5 23 43.898438 23 C 43.101563 23 42.398438 22.300781 42.398438 21.5 C 42.398438 21.300781 42.398438 21.101563 42.5 20.898438 C 42.800781 20 43 19 43 18 C 43 13 39 9 34 9 C 33.601563 9 33.101563 9 32.699219 9.101563 C 32.699219 9.101563 32.699219 9.101563 32.601563 9.101563 C 32.601563 9.101563 32.5 9.101563 32.5 9.101563 C 31.699219 9.101563 31 8.398438 31 7.601563 C 31 6.800781 31.699219 6.101563 32.5 6.101563 C 33 6 33.5 6 34 6 C 40.601563 6 46 11.398438 46 18 C 46 19.398438 45.800781 20.699219 45.300781 22 Z M 40 18 C 40 14.699219 37.300781 12 34 12 C 33.800781 12 33.601563 12 33.300781 12 C 33.300781 12 33.300781 12 33.199219 12 C 32.5 12.101563 31.898438 12.699219 31.898438 13.5 C 31.898438 14.300781 32.601563 15 33.398438 15 C 33.398438 15 33.5 15 33.5 15 C 33.601563 15 33.800781 15 33.898438 15 C 35.601563 15 36.898438 16.300781 36.898438 18 C 36.898438 18.300781 36.800781 18.699219 36.699219 19 C 36.601563 19.199219 36.601563 19.300781 36.601563 19.5 C 36.601563 20.300781 37.300781 21 38.101563 21 C 38.699219 21 39.199219 20.601563 39.5 20.101563 C 39.5 20.101563 39.5 20 39.5 20 C 39.5 19.898438 39.5 19.898438 39.601563 19.800781 C 39.898438 19.199219 40 18.601563 40 18 Z "/>
</g>
</svg>
