<svg height="271.079" viewBox="0 0 77.975 71.723" width="294.708" xmlns="http://www.w3.org/2000/svg"><g transform="matrix(.00893 0 0 .00893 -10.576 -31.118)"><path d="m5550 11500h-4350v-8000h8700v8000z" fill="#cfe7f5"/><g fill="none"><path d="m5550 11500h-4350v-8000h8700v8000z" stroke="#808080"/><path d="m1200 3500h8701v8001h-8701z"/></g></g><g transform="matrix(.00893 0 0 .00893 -10.576 -31.118)"><path d="m5550 11500h-4350v-1800h8700v1800z" fill="#0ff"/><g fill="none"><path d="m5550 11500h-4350v-1800h8700v1800z" stroke="#808080"/><path d="m1200 9700h8701v1801h-8701z"/></g></g><g transform="matrix(.00893 0 0 .00893 -10.576 -31.118)"><path d="m2250 9700h-1050v-6200h2100v6200z" fill="#09f"/><g fill="none"><path d="m2250 9700h-1050v-6200h2100v6200z" stroke="#808080"/><path d="m1200 3500h2101v6201h-2101z"/></g></g><g transform="matrix(.00893 0 0 .00893 -10.576 -31.118)"><path d="m5549 11499h-4350v-8000h8700v8000z" fill="#cfe7f5"/><g fill="none"><path d="m5549 11499h-4350v-8000h8700v8000z" stroke="#808080"/><path d="m1199 3499h8701v8001h-8701z"/></g></g><g stroke="#000" stroke-width="29.624619" transform="matrix(.00893 0 0 .00893 -10.576 -31.118)"><path d="m5549 11499h-4350v-1100h8700v1100z" fill="#0ff"/><g fill="none"><path d="m5549 11499h-4350v-1100h8700v1100z"/><path d="m1199 10399h8701v1101h-8701z"/></g></g><g stroke="#000" stroke-width="29.624619" transform="matrix(.00893 0 0 .00893 -10.576 -31.118)"><path d="m1999 10399h-800v-6900h1600v6900z" fill="#09f"/><g fill="none"><path d="m1999 10399h-800v-6900h1600v6900z"/><path d="m1199 3499h1601v6901h-1601z"/></g></g><g transform="matrix(.00893 0 0 .00893 -10.576 -30.853)"><path d="m7500 7000h-300v-600h600v600z" fill="#7e0021"/><g fill="none"><path d="m7500 7000h-300v-600h600v600z" stroke="#808080"/><path d="m7200 6400h601v601h-601z"/></g></g><g transform="matrix(.00893 0 0 .00893 -10.576 -30.853)"><path d="m6499 6299h-300v-600h600v600z" fill="#7e0021"/><g fill="none"><path d="m6499 6299h-300v-600h600v600z" stroke="#808080"/><path d="m6199 5699h601v601h-601z"/></g></g><g transform="matrix(.00893 0 0 .00893 -10.576 -30.853)"><path d="m7099 4799h-300v-600h600v600z" fill="#7e0021"/><g fill="none"><path d="m7099 4799h-300v-600h600v600z" stroke="#808080"/><path d="m6799 4199h601v601h-601z"/></g></g><g transform="matrix(.00893 0 0 .00893 -10.576 -30.853)"><path d="m5099 5199h-300v-600h600v600z" fill="#7e0021"/><g fill="none"><path d="m5099 5199h-300v-600h600v600z" stroke="#808080"/><path d="m4799 4599h601v601h-601z"/></g></g><g transform="matrix(.00893 0 0 .00893 -10.576 -30.853)"><path d="m8699 6499h-300v-600h600v600z" fill="#7e0021"/><g fill="none"><path d="m8699 6499h-300v-600h600v600z" stroke="#808080"/><path d="m8399 5899h601v601h-601z"/></g></g><g transform="matrix(.00893 0 0 .00893 -10.576 -30.853)"><path d="m7899 8299h-300v-600h600v600z" fill="#7e0021"/><g fill="none"><path d="m7899 8299h-300v-600h600v600z" stroke="#808080"/><path d="m7599 7699h601v601h-601z"/></g></g><g transform="matrix(.00893 0 0 .00893 -10.576 -30.853)"><path d="m5399 8099h-300v-600h600v600z" fill="#7e0021"/><g fill="none"><path d="m5399 8099h-300v-600h600v600z" stroke="#808080"/><path d="m5099 7499h601v601h-601z"/></g></g><g transform="matrix(.00893 0 0 .00893 -10.576 -31.118)"><path d="m1999 10299h-700v-800h1400v800z" fill="#ff950e"/><g fill="none"><path d="m1999 10299h-700v-800h1400v800z" stroke="#808080"/><path d="m1299 9499h1401v801h-1401z"/></g></g><g transform="matrix(.00893 0 0 .00893 -10.576 -31.118)"><path d="m1999 9399h-700v-800h1400v800z" fill="#ff950e"/><g fill="none"><path d="m1999 9399h-700v-800h1400v800z" stroke="#808080"/><path d="m1299 8599h1401v801h-1401z"/></g></g><g transform="matrix(.00893 0 0 .00893 -10.576 -31.118)"><path d="m1999 8499h-700v-800h1400v800z" fill="#ff950e"/><g fill="none"><path d="m1999 8499h-700v-800h1400v800z" stroke="#808080"/><path d="m1299 7699h1401v801h-1401z"/></g></g><g transform="matrix(.00893 0 0 .00893 -10.576 -31.118)"><path d="m1999 11399h-700v-900h1400v900z" fill="#cc0"/><g fill="none"><path d="m1999 11399h-700v-900h1400v900z" stroke="#808080"/><path d="m1299 10499h1401v901h-1401z"/></g></g><g transform="matrix(.00893 0 0 .00893 -10.576 -31.118)"><path d="m3599 11399h-700v-900h1400v900z" fill="#cc0"/><g fill="none"><path d="m3599 11399h-700v-900h1400v900z" stroke="#808080"/><path d="m2899 10499h1401v901h-1401z"/></g></g><g transform="matrix(.00893 0 0 .00893 -10.576 -31.118)"><path d="m5199 11399h-700v-900h1400v900z" fill="#cc0"/><g fill="none"><path d="m5199 11399h-700v-900h1400v900z" stroke="#808080"/><path d="m4499 10499h1401v901h-1401z"/></g></g><g transform="matrix(.00893 0 0 .00893 -10.594 -38.959)"><path d="m1999 8499h-700v-800h1400v800z" fill="#ff950e"/><g fill="none"><path d="m1999 8499h-700v-800h1400v800z" stroke="#808080"/><path d="m1299 7699h1401v801h-1401z"/></g></g><g style="font-weight:400;font-size:3.175;font-family:Arial;letter-spacing:0;word-spacing:0;stroke-width:.264583" transform="translate(-56.533 -176.993)"><text x="57.178" y="182.058"><tspan font-size="5.291667" stroke-width=".264583" x="57.178" y="182.058">Stack</tspan></text><text x="120.167" y="182.1"><tspan font-size="5.291667" stroke-width=".264583" x="120.167" y="182.1">Heap</tspan></text><text x="117.418" y="244.809"><tspan font-size="5.291667" stroke-width=".264583" x="117.418" y="244.809">Queue</tspan></text><text x="58.622" y="211.613"><tspan font-size="3.527778" stroke-width=".264583" x="58.622" y="211.613">Frame</tspan></text><text x="58.639" y="219.453"><tspan font-size="3.527778" stroke-width=".264583" x="58.639" y="219.453">Frame</tspan></text><text x="58.639" y="227.491"><tspan font-size="3.527778" stroke-width=".264583" x="58.639" y="227.491">Frame</tspan></text><text x="58.639" y="235.529"><tspan font-size="3.527778" stroke-width=".264583" x="58.639" y="235.529">Frame</tspan></text><text x="58.037" y="244.378"><tspan font-size="2.822222" stroke-width=".264583" x="58.037" y="244.378">Message</tspan></text><text x="72.327" y="244.378"><tspan font-size="2.822222" stroke-width=".264583" x="72.327" y="244.378">Message</tspan></text><text x="86.617" y="244.378"><tspan font-size="2.822222" stroke-width=".264583" x="86.617" y="244.378">Message</tspan></text><text x="86.327" y="185.938"><tspan font-size="3.527778" stroke-width=".264583" x="86.327" y="185.938">Object</tspan></text><text x="104.189" y="182.366"><tspan font-size="3.527778" stroke-width=".264583" x="104.189" y="182.366">Object</tspan></text><text x="98.831" y="195.763"><tspan font-size="3.527778" stroke-width=".264583" x="98.831" y="195.763">Object</tspan></text><text x="118.479" y="197.549"><tspan font-size="3.527778" stroke-width=".264583" x="118.479" y="197.549">Object</tspan></text><text x="107.771" y="202.023"><tspan font-size="3.527778" stroke-width=".264583" x="107.771" y="202.023">Object</tspan></text><text x="111.334" y="213.625"><tspan font-size="3.527778" stroke-width=".264583" x="111.334" y="213.625">Object</tspan></text><text x="89.006" y="211.839"><tspan font-size="3.527778" stroke-width=".264583" x="89.006" y="211.839">Object</tspan></text></g></svg>